# xmcd
#
# Track frame offsets:
#	150
#	13370
#	27928
#	37531
#	55741
#	68666
#	80296
#	98308
#	110204
#	121978
#	134230
#	152485
#	169856
#	189492
#	202955
#	220693
#	234826
#	249883
#	265349
#	277284
#	297338
#	311831
#	329984
#
# Disc length: 4627 seconds
#
# Revision: 0
# Processed by: cddbd v1.5.2PL0 Copyright (c) Steve Scherf et al.
# Submitted via: EasyCDDAExtractor 2010.6.0.0
#
DISCID=4c121117
DTITLE=Various Artist - Country Hits, Vol. 40
DYEAR=2010
DGENRE=Country
TTITLE0=Alan Jackson - Tequila Sunrise
TTITLE1=Brooks and Dunn - Play Something Country
TTITLE2=Drag The River - Embrace The Sound
TTITLE3=Luke Bryan - All My Friends Say
TTITLE4=Asleep at the Wheel - Walk On By
TTITLE5=Martine McBride - My Baby loves me
TTITLE6=Alan Jackson - Chattahoochee (Extended Mix)
TTITLE7=David Allan Coe - Fool Inside Of Me
TTITLE8=Rosanne Cash - You Don't Have Very Far To Go
TTITLE9=Drag The River - Barroom Bliss
TTITLE10=Rosanne Cash - Only Human
TTITLE11=Asleep At The Wheel - Don't Forget The Trains
TTITLE12=Brooks and Dunn - Building Bridges
TTITLE13=Rosanne Cash - Hometown Blues
TTITLE14=Martina McBride - Wild Angels
TTITLE15=Drag The River - Lost Weekend
TTITLE16=Luke Bryan - Baby's On the Way
TTITLE17=Brooks and Dunn - She's Not The Cheatin' Kind
TTITLE18=Alan Jackson - Little Bity
TTITLE19=Luke Bryan - Welcome To The Farm
TTITLE20=Martine McBride - Save in the Arms of Love
TTITLE21=Asleep at the Wheel - That's The Way Love Is
TTITLE22=Billy Joe Shaver - Freedom's Child
EXTD=
EXTT0=
EXTT1=
EXTT2=
EXTT3=
EXTT4=
EXTT5=
EXTT6=
EXTT7=
EXTT8=
EXTT9=
EXTT10=
EXTT11=
EXTT12=
EXTT13=
EXTT14=
EXTT15=
EXTT16=
EXTT17=
EXTT18=
EXTT19=
EXTT20=
EXTT21=
EXTT22=
PLAYORDER=
